<svg width="49" height="46" viewBox="0 0 49 46" fill="none" xmlns="http://www.w3.org/2000/svg">
<mask id="mask0_573_2774" style="mask-type:luminance" maskUnits="userSpaceOnUse" x="0" y="1" width="44" height="44">
<path d="M44 1H0V45H44V1Z" fill="white"/>
</mask>
<g mask="url(#mask0_573_2774)">
<g opacity="0.6">
<path d="M29.4727 24.8047C31.0768 24.8047 32.8242 25.0339 34.7149 25.4922C36.6055 25.9505 38.3529 26.6953 39.9571 27.7266C41.5612 28.7578 42.3633 29.9323 42.3633 31.25V35.8047H31.3633V31.25C31.3633 28.7292 30.1602 26.6094 27.7539 24.8906C28.155 24.8333 28.7279 24.8047 29.4727 24.8047ZM9.62109 25.4922C11.5117 25.0339 13.2591 24.8047 14.8633 24.8047C16.4675 24.8047 18.2149 25.0339 20.1055 25.4922C21.9961 25.9505 23.7149 26.6953 25.2617 27.7266C26.8659 28.7578 27.668 29.9323 27.668 31.25V35.8047H1.97266V31.25C1.97266 29.9323 2.77474 28.7578 4.37891 27.7266C5.98307 26.6953 7.73047 25.9505 9.62109 25.4922ZM18.6446 19.5625C17.6133 20.651 16.3529 21.1953 14.8633 21.1953C13.3737 21.1953 12.0847 20.651 10.9961 19.5625C9.90755 18.474 9.36328 17.1849 9.36328 15.6953C9.36328 14.2057 9.90755 12.9167 10.9961 11.8281C12.0847 10.7396 13.3737 10.1953 14.8633 10.1953C16.3529 10.1953 17.6133 10.7396 18.6446 11.8281C19.7331 12.9167 20.2774 14.2057 20.2774 15.6953C20.2774 17.1849 19.7331 18.474 18.6446 19.5625ZM33.3399 19.5625C32.2513 20.651 30.9623 21.1953 29.4727 21.1953C27.9831 21.1953 26.694 20.651 25.6055 19.5625C24.5169 18.474 23.9727 17.1849 23.9727 15.6953C23.9727 14.2057 24.5169 12.9167 25.6055 11.8281C26.694 10.7396 27.9831 10.1953 29.4727 10.1953C30.9623 10.1953 32.2513 10.7396 33.3399 11.8281C34.4284 12.9167 34.9727 14.2057 34.9727 15.6953C34.9727 17.1849 34.4284 18.474 33.3399 19.5625Z" fill="#6D7CFF"/>
</g>
</g>
</svg>
