<svg width="64" height="64" viewBox="0 0 64 64" fill="none" xmlns="http://www.w3.org/2000/svg">
<path d="M22.9766 10.6663V42.6663C22.9766 44.0808 23.5385 45.4374 24.5387 46.4376C25.5389 47.4378 26.8954 47.9997 28.3099 47.9997H49.6432C51.0577 47.9997 52.4143 47.4378 53.4145 46.4376C54.4147 45.4374 54.9766 44.0808 54.9766 42.6663V19.3117C54.9765 18.6012 54.8344 17.8978 54.5587 17.243C54.2831 16.5881 53.8793 15.995 53.3712 15.4983L44.5312 6.85301C43.5349 5.87876 42.1968 5.33318 40.8032 5.33301H28.3099C26.8954 5.33301 25.5389 5.89491 24.5387 6.8951C23.5385 7.8953 22.9766 9.25185 22.9766 10.6663Z" stroke="#91909E" stroke-width="2" stroke-linecap="round" stroke-linejoin="round"/>
<path d="M42.668 47.9984V53.3317C42.668 54.7462 42.1061 56.1027 41.1059 57.1029C40.1057 58.1031 38.7491 58.665 37.3346 58.665H16.0013C14.5868 58.665 13.2303 58.1031 12.2301 57.1029C11.2299 56.1027 10.668 54.7462 10.668 53.3317V23.9984C10.668 22.5839 11.2299 21.2273 12.2301 20.2271C13.2303 19.2269 14.5868 18.665 16.0013 18.665H21.3346" stroke="#91909E" stroke-width="2" stroke-linecap="round" stroke-linejoin="round"/>
</svg>
