<svg width="44" height="46" viewBox="0 0 44 46" fill="none" xmlns="http://www.w3.org/2000/svg">
<g clip-path="url(#clip0_573_2780)">
<mask id="mask0_573_2780" style="mask-type:luminance" maskUnits="userSpaceOnUse" x="0" y="0" width="44" height="46">
<path d="M44 0H0V46H44V0Z" fill="white"/>
</mask>
<g mask="url(#mask0_573_2780)">
<g opacity="0.6">
<path d="M21.293 23.027C22.7635 23.4281 23.9666 23.8291 24.9024 24.2302C25.905 24.6312 26.941 25.1994 28.0105 25.9346C29.0799 26.603 29.882 27.4719 30.4167 28.5414C31.0183 29.6108 31.3191 30.8808 31.3191 32.3513C31.3191 34.4233 30.6172 36.1277 29.2136 37.4645C27.8768 38.7345 26.0721 39.57 23.7995 39.9711V44.583H17.3829V39.9711C15.1771 39.5032 13.339 38.5674 11.8685 37.1638C10.4649 35.7601 9.69618 33.9554 9.5625 31.7497H14.2748C14.5421 34.7575 16.6476 36.2614 20.5912 36.2614C22.6632 36.2614 24.1337 35.8938 25.0026 35.1586C25.9384 34.3565 26.4063 33.4541 26.4063 32.4515C26.4063 30.0453 24.2674 28.3074 19.9896 27.238C13.3056 25.7007 9.96354 22.7597 9.96354 18.4151C9.96354 16.4767 10.6654 14.8391 12.0691 13.5023C13.4727 12.0987 15.244 11.1629 17.3829 10.695V6.08301H23.7995V10.7953C26.0053 11.33 27.6763 12.3326 28.8125 13.8031C30.0157 15.2736 30.6506 16.978 30.7175 18.9164H26.0053C25.8716 15.9086 24.0669 14.4046 20.5912 14.4046C18.8533 14.4046 17.4497 14.7723 16.3802 15.5075C15.3776 16.2428 14.8763 17.2119 14.8763 18.4151C14.8763 20.3534 17.0152 21.8908 21.293 23.027Z" fill="#717CFF"/>
</g>
</g>
</g>
<defs>
<clipPath id="clip0_573_2780">
<rect width="44" height="46" fill="white"/>
</clipPath>
</defs>
</svg>
