<svg width="64" height="64" viewBox="0 0 64 64" fill="none" xmlns="http://www.w3.org/2000/svg">
<g clip-path="url(#clip0_573_2792)">
<mask id="mask0_573_2792" style="mask-type:luminance" maskUnits="userSpaceOnUse" x="0" y="0" width="64" height="64">
<path d="M64 0H0V64H64V0Z" fill="white"/>
</mask>
<g mask="url(#mask0_573_2792)">
<path fill-rule="evenodd" clip-rule="evenodd" d="M13.3364 23.9997C13.3364 19.049 15.3031 14.301 18.8038 10.8003C22.3044 7.29967 27.0522 5.33301 32.0032 5.33301C36.9538 5.33301 41.7018 7.29967 45.2024 10.8003C48.7032 14.301 50.6698 19.049 50.6698 23.9997V34.037L55.5285 43.7543C55.752 44.2015 55.8576 44.6986 55.8352 45.1981C55.8128 45.6978 55.6629 46.1831 55.4 46.6085C55.137 47.0341 54.7698 47.385 54.333 47.6285C53.8962 47.8719 53.4045 47.9997 52.9045 47.9997H42.3338C41.7405 50.2882 40.4042 52.3151 38.5344 53.7621C36.6648 55.209 34.3674 55.9941 32.0032 55.9941C29.6389 55.9941 27.3416 55.209 25.4717 53.7621C23.6019 52.3151 22.2656 50.2882 21.6724 47.9997H11.1017C10.6017 47.9997 10.1099 47.8719 9.67312 47.6285C9.23635 47.385 8.86904 47.0341 8.60613 46.6085C8.34323 46.1831 8.19341 45.6978 8.17093 45.1981C8.14845 44.6986 8.25408 44.2015 8.47773 43.7543L13.3364 34.037V23.9997ZM27.3845 47.9997C27.8525 48.8103 28.5258 49.4837 29.3365 49.9517C30.1472 50.4197 31.0669 50.6661 32.0032 50.6661C32.9392 50.6661 33.8589 50.4197 34.6696 49.9517C35.4802 49.4837 36.1536 48.8103 36.6218 47.9997H27.3845ZM32.0032 10.6663C28.4669 10.6663 25.0755 12.0711 22.575 14.5716C20.0745 17.0721 18.6697 20.4635 18.6697 23.9997V34.037C18.6697 34.8645 18.477 35.6807 18.1071 36.421L14.9871 42.6663H49.0218L45.9018 36.421C45.5309 35.681 45.3373 34.8647 45.3365 34.037V23.9997C45.3365 20.4635 43.9317 17.0721 41.4312 14.5716C38.9306 12.0711 35.5392 10.6663 32.0032 10.6663Z" fill="#34314C"/>
</g>
</g>
<defs>
<clipPath id="clip0_573_2792">
<rect width="64" height="64" fill="white"/>
</clipPath>
</defs>
</svg>
