<svg width="49" height="46" viewBox="0 0 49 46" fill="none" xmlns="http://www.w3.org/2000/svg">
<mask id="mask0_573_2786" style="mask-type:luminance" maskUnits="userSpaceOnUse" x="0" y="1" width="44" height="44">
<path d="M44 1H0V45H44V1Z" fill="white"/>
</mask>
<g mask="url(#mask0_573_2786)">
<g opacity="0.6">
<path d="M28.7852 35.1172C29.53 34.3724 30.3893 34 31.3633 34C32.3373 34 33.168 34.3724 33.8555 35.1172C34.6003 35.862 34.9727 36.7214 34.9727 37.6953C34.9727 38.6693 34.6003 39.5286 33.8555 40.2734C33.168 40.9609 32.3373 41.3047 31.3633 41.3047C30.3893 41.3047 29.53 40.9609 28.7852 40.2734C28.0404 39.5286 27.668 38.6693 27.668 37.6953C27.668 36.7214 28.0404 35.862 28.7852 35.1172ZM1.97266 4.69531H7.98828L9.70703 8.30469H36.8633C37.3789 8.30469 37.8086 8.50521 38.1524 8.90625C38.4961 9.25 38.668 9.67969 38.668 10.1953C38.668 10.2526 38.5821 10.5391 38.4102 11.0547L31.8789 22.9141C31.1914 24.1745 30.1315 24.8047 28.6992 24.8047H15.0352L13.4024 27.8125L13.3164 28.0703C13.3164 28.3568 13.4597 28.5 13.7461 28.5H34.9727V32.1953H12.9727C11.9987 32.1953 11.1393 31.8229 10.3946 31.0781C9.70703 30.3333 9.36328 29.474 9.36328 28.5C9.36328 27.9271 9.50651 27.3542 9.79297 26.7812L12.2852 22.2266L5.66797 8.30469H1.97266V4.69531ZM10.3946 35.1172C11.1393 34.3724 11.9987 34 12.9727 34C13.9466 34 14.806 34.3724 15.5508 35.1172C16.2956 35.862 16.668 36.7214 16.668 37.6953C16.668 38.6693 16.2956 39.5286 15.5508 40.2734C14.806 40.9609 13.9466 41.3047 12.9727 41.3047C11.9987 41.3047 11.1393 40.9609 10.3946 40.2734C9.70703 39.5286 9.36328 38.6693 9.36328 37.6953C9.36328 36.7214 9.70703 35.862 10.3946 35.1172Z" fill="#717CFF"/>
</g>
</g>
</svg>
