<svg width="64" height="64" viewBox="0 0 64 64" fill="none" xmlns="http://www.w3.org/2000/svg">
<path d="M27.333 5.33301C31.5143 5.33255 35.609 6.52362 39.1377 8.76669C42.6663 11.0098 45.4826 14.2119 47.2568 17.9981C49.0309 21.7843 49.6894 25.9976 49.1551 30.1445C48.6207 34.2915 46.9157 38.2003 44.2397 41.413L59.413 56.5863C59.6763 56.8308 59.8688 57.1417 59.9701 57.4864C60.0715 57.8311 60.078 58.1967 59.989 58.5448C59.9 58.8928 59.7188 59.2104 59.4644 59.4641C59.2101 59.7178 58.892 59.8982 58.5437 59.9863C58.196 60.0752 57.8308 60.0688 57.4865 59.9679C57.1421 59.867 56.8312 59.6754 56.5864 59.413L41.413 44.2397C38.6979 46.5004 35.4783 48.0739 32.0264 48.8272C28.5746 49.5804 24.9921 49.4913 21.582 48.5672C18.1719 47.6432 15.0345 45.9114 12.4352 43.5185C9.83593 41.1255 7.8512 38.1417 6.64892 34.8195C5.44664 31.4972 5.06217 27.9343 5.52804 24.4321C5.9939 20.9299 7.2964 17.5914 9.32536 14.699C11.3543 11.8066 14.05 9.44538 17.1845 7.81511C20.319 6.18485 23.8 5.33347 27.333 5.33301ZM9.33304 27.333C9.33304 29.6968 9.79862 32.0374 10.7032 34.2213C11.6078 36.4052 12.9337 38.3895 14.6051 40.0609C16.2766 41.7324 18.2609 43.0583 20.4447 43.9628C22.6286 44.8674 24.9692 45.333 27.333 45.333C29.6968 45.333 32.0375 44.8674 34.2213 43.9628C36.4052 43.0583 38.3895 41.7324 40.061 40.0609C41.7324 38.3895 43.0583 36.4052 43.9629 34.2213C44.8675 32.0374 45.333 29.6968 45.333 27.333C45.333 22.5591 43.4366 17.9807 40.061 14.6051C36.6853 11.2294 32.1069 9.33301 27.333 9.33301C22.5591 9.33301 17.9808 11.2294 14.6051 14.6051C11.2295 17.9807 9.33304 22.5591 9.33304 27.333Z" fill="#949494"/>
</svg>
