<svg width="64" height="64" viewBox="0 0 64 64" fill="none" xmlns="http://www.w3.org/2000/svg">
<path d="M45.3152 32.0023C45.3152 34.5135 44.5332 36.9687 43.0682 39.0569C41.6029 41.1451 39.5207 42.7729 37.0842 43.7338C34.6477 44.695 31.967 44.9464 29.3806 44.4567C26.7941 43.9666 24.4184 42.757 22.5537 40.9812C20.689 39.2053 19.4191 36.9428 18.9046 34.4794C18.3902 32.0163 18.6542 29.463 19.6634 27.1427C20.6725 24.8223 22.3815 22.8391 24.5742 21.4438C26.7668 20.0485 29.3447 19.3037 31.9818 19.3037" stroke="#0A184A" stroke-width="2" stroke-linecap="round" stroke-linejoin="round"/>
<path d="M37.3243 7.11244C35.5999 6.7772 33.8219 6.60788 31.9909 6.60449C17.2629 6.60449 5.32422 17.9747 5.32422 32.0012C5.32422 46.0279 17.2629 57.3983 31.9909 57.3983C46.7189 57.3983 58.6575 46.0279 58.6575 32.0012C58.6539 30.2574 58.4763 28.5643 58.1243 26.922" stroke="#0A184A" stroke-width="2" stroke-linecap="round" stroke-linejoin="round"/>
<path d="M32.0742 31.9048L44.2157 20.3417M52.6342 12.5601L51.1597 7.51121C51.1008 7.31888 50.9929 7.14333 50.8457 7.00016C50.6985 6.85695 50.5165 6.7505 50.3158 6.69024C50.1152 6.62996 49.9021 6.61774 49.6953 6.65462C49.4886 6.69149 49.2944 6.77637 49.1302 6.90169C45.3011 9.88074 41.1302 13.896 44.5357 20.2274C51.3997 23.275 55.3197 19.1658 58.3222 15.7093C58.4582 15.5501 58.5501 15.3612 58.5901 15.1596C58.6301 14.958 58.6166 14.7501 58.551 14.5548C58.4851 14.3594 58.3696 14.1827 58.2141 14.0406C58.0589 13.8985 57.8688 13.7956 57.6611 13.7411L52.6342 12.5601Z" stroke="#0A184A" stroke-width="2" stroke-linecap="round" stroke-linejoin="round"/>
</svg>
